<svg width="227" height="57" viewBox="0 0 227 57" fill="none" xmlns="http://www.w3.org/2000/svg">
<g clip-path="url(#clip0_241_2228)">
<path d="M81.8248 11.5783C85.323 11.5783 88.3919 12.262 91.0315 13.6295C93.7028 14.997 95.7541 16.9528 97.1851 19.4969C98.648 22.0093 99.3795 24.9351 99.3795 28.2743C99.3795 31.6135 98.648 34.5392 97.1851 37.0516C95.7541 39.5322 93.7028 41.4562 91.0315 42.8236C88.3919 44.1911 85.323 44.8749 81.8248 44.8749L70.1853 44.8749L70.1853 11.5783L81.8248 11.5783ZM81.5863 39.1982C85.0845 39.1982 87.7877 38.2442 89.6958 36.3361C91.6039 34.4279 92.558 31.7407 92.558 28.2743C92.558 24.8079 91.6039 22.1047 89.6958 20.1648C87.7877 18.1931 85.0845 17.2072 81.5863 17.2072L76.8637 17.2072L76.8637 39.1982L81.5863 39.1982Z" fill="black"/>
<path d="M106.048 11.5783L106.048 44.8749L99.3698 44.8749L99.3698 11.5783L106.048 11.5783Z" fill="black"/>
<path d="M130.821 21.5959C130.058 20.1966 129.009 19.1312 127.673 18.3998C126.337 17.6683 124.779 17.3026 122.998 17.3026C121.026 17.3026 119.277 17.7478 117.751 18.6383C116.224 19.5287 115.032 20.8008 114.173 22.4545C113.314 24.1082 112.885 26.0163 112.885 28.1789C112.885 30.405 113.314 32.3449 114.173 33.9986C115.063 35.6523 116.288 36.9244 117.846 37.8148C119.404 38.7053 121.217 39.1505 123.284 39.1505C125.828 39.1505 127.911 38.4827 129.533 37.147C131.155 35.7795 132.221 33.8873 132.729 31.4704L121.281 31.4704L121.281 26.3661L139.312 26.3661L139.312 32.1859C138.867 34.5074 137.913 36.6541 136.45 38.6258C134.987 40.5975 133.095 42.1876 130.774 43.3961C128.484 44.5728 125.908 45.1611 123.046 45.1611C119.834 45.1611 116.924 44.4456 114.316 43.0145C111.74 41.5516 109.705 39.5321 108.21 36.9562C106.747 34.3802 106.016 31.4545 106.016 28.1789C106.016 24.9033 106.747 21.9775 108.21 19.4015C109.705 16.7938 111.74 14.7743 114.316 13.3433C116.924 11.8804 119.818 11.1489 122.998 11.1489C126.751 11.1489 130.01 12.0712 132.777 13.9157C135.544 15.7284 137.452 18.2885 138.501 21.5959L130.821 21.5959Z" fill="black"/>
<path d="M145.923 11.5783L145.923 44.8749L139.245 44.8749L139.245 11.5783L145.923 11.5783Z" fill="black"/>
<path d="M170.696 21.5959C169.933 20.1966 168.883 19.1312 167.548 18.3998C166.212 17.6683 164.654 17.3026 162.873 17.3026C160.901 17.3026 159.152 17.7478 157.625 18.6383C156.099 19.5287 154.906 20.8008 154.048 22.4545C153.189 24.1082 152.76 26.0163 152.76 28.1789C152.76 30.405 153.189 32.3449 154.048 33.9986C154.938 35.6523 156.163 36.9244 157.721 37.8148C159.279 38.7053 161.092 39.1505 163.159 39.1505C165.703 39.1505 167.786 38.4827 169.408 37.147C171.03 35.7795 172.095 33.8873 172.604 31.4704L161.155 31.4704L161.155 26.3661L179.187 26.3661L179.187 32.1859C178.742 34.5074 177.788 36.6541 176.325 38.6258C174.862 40.5975 172.97 42.1876 170.648 43.3961C168.359 44.5728 165.783 45.1611 162.92 45.1611C159.708 45.1611 156.799 44.4455 154.191 43.0145C151.615 41.5516 149.58 39.5321 148.085 36.9562C146.622 34.3802 145.891 31.4545 145.891 28.1789C145.891 24.9033 146.622 21.9775 148.085 19.4015C149.58 16.7938 151.615 14.7743 154.191 13.3433C156.799 11.8804 159.693 11.1489 162.873 11.1489C166.625 11.1489 169.885 12.0712 172.652 13.9157C175.419 15.7284 177.327 18.2885 178.376 21.5959L170.696 21.5959Z" fill="black"/>
<path d="M199.536 38.5304L186.275 38.5304L184.08 44.8749L177.068 44.8749L189.042 11.5305L196.817 11.5305L208.791 44.8749L201.731 44.8749L199.536 38.5304ZM197.723 33.1877L192.905 19.2584L188.087 33.1877L197.723 33.1877Z" fill="black"/>
<path d="M214.936 39.5798L225.907 39.5798L225.907 44.8749L208.257 44.8749L208.257 11.5782L214.936 11.5782L214.936 39.5798Z" fill="black"/>
<path d="M38.9626 31.4395C38.4944 33.4435 37.5058 35.2438 36.1494 36.6862L47.1374 47.81L51.1355 43.7626L38.9626 31.4395Z" fill="#BE9E44"/>
<path d="M35.0964 1.68311L29.635 0.201659L25.0326 17.5901L20.8775 1.8917L15.416 3.37315L19.9053 20.3341L8.72341 9.01423L4.72535 13.0616L16.9905 25.4783L1.7162 21.335L0.252808 26.8638L16.9419 31.3908C16.7509 30.5565 16.6498 29.6872 16.6498 28.794C16.6498 22.4715 21.7126 17.3462 27.958 17.3462C34.2034 17.3462 39.2662 22.4715 39.2663 28.794C39.2663 29.6814 39.1664 30.5454 38.9777 31.3748L54.145 35.489L55.6083 29.9602L38.8529 25.4152L54.1282 21.2716L52.6648 15.7428L35.91 20.2876L47.0919 8.96776L43.0938 4.92036L30.9988 17.1647L35.0964 1.68311Z" fill="#BE9E44"/>
<path d="M36.0388 36.8022C34.6661 38.2216 32.9313 39.2808 30.9858 39.8267L34.9842 54.9328L40.4456 53.4513L36.0388 36.8022Z" fill="#BE9E44"/>
<path d="M30.7814 39.8816C29.8788 40.1165 28.9328 40.2413 27.9578 40.2413C26.9133 40.2413 25.9019 40.0979 24.9417 39.8296L20.9397 54.9495L26.4011 56.4308L30.7814 39.8816Z" fill="#BE9E44"/>
<path d="M24.7486 39.7737C22.8329 39.2008 21.129 38.128 19.7842 36.7046L8.76917 47.8556L12.7672 51.9031L24.7486 39.7737Z" fill="#BE9E44"/>
<path d="M19.6929 36.6067C18.3712 35.1742 17.4085 33.3979 16.9502 31.4248L1.7334 35.5525L3.19678 41.0813L19.6929 36.6067Z" fill="#BE9E44"/>
</g>
<defs>
<clipPath id="clip0_241_2228">
<rect width="227" height="56.4758" fill="white"/>
</clipPath>
</defs>
</svg>
